# File created by Blade
# Date/Time:  Wed Apr 08 14:47:28 2015
#---------------------------------------------------------
:version 1.10
:name HOM
:units
  mass 1.0
  length 1.000000
  angle deg
:documentation
     Acclaim Skeleton File
:root
   axis xyz
   order TX TY TZ RX RY RZ
   position 0.000000 0.000000 0.000000
   orientation 0 0 0
:bonedata
   begin
      id 1
      name Spine_dum
      direction 0.000000 1.000000 0.000000
      length 4.885285
      axis 0.0 0.0 0.0 xyz
   end
   begin
      id 2
      name LeftUpLeg_dum
      direction 1.000000 0.000000 0.000000
      length 2.672193
      axis 0.0 0.0 0.0 xyz
   end
   begin
      id 3
      name RightUpLeg_dum
      direction -1.000000 0.000000 0.000000
      length 2.672193
      axis 0.0 0.0 0.0 xyz
   end
   begin
      id 4
      name Spine
      direction 0.000000 1.000000 0.000000
      length 0.000000
      axis 0.0 0.0 0.0 xyz
      dof rx ry rz
   end
   begin
      id 5
      name Spine_dum1
      direction 0.000000 1.000000 0.000000
      length 16.494159
      axis 0.0 0.0 0.0 xyz
   end
   begin
      id 6
      name Spine_dum2
      direction 0.000000 1.000000 0.000000
      length 10.663448
      axis 0.0 0.0 0.0 xyz
   end
   begin
      id 7
      name Spine_dum3
      direction 0.000000 1.000000 0.000000
      length 10.663448
      axis 0.0 0.0 0.0 xyz
   end
   begin
      id 8
      name Head
      direction 0.000000 1.000000 0.000000
      length 4.527550
      axis 0.0 0.0 0.0 xyz
      dof rx ry rz
   end
   begin
      id 9
      name LeftShoulder
      direction 1.000000 0.000000 0.000000
      length 7.531907
      axis 0.0 0.0 -90.0 xyz
      dof rx ry rz
   end
   begin
      id 10
      name LeftArm
      direction 1.000000 0.000000 0.000000
      length 10.229199
      axis 0.0 0.0 -90.0 xyz
      dof rx ry rz
   end
   begin
      id 11
      name LeftForeArm
      direction 1.000000 0.000000 0.000000
      length 8.673495
      axis 0.0 0.0 -90.0 xyz
      dof ry rz rx
   end
   begin
      id 12
      name LeftHand
      direction 0.000000 0.000000 0.000000
      length 0.000000
      axis 0.0 0.0 -90.0 xyz
      dof rx ry rz
   end
   begin
      id 13
      name LeftHand_dum1
      direction 0.000000 0.000000 0.000000
      length 0.000000
      axis 0.0 0.0 -90.0 xyz
   end
   begin
      id 14
      name LeftHand_dum2
      direction 1.000000 0.000000 0.000000
      length 3.937000
      axis 0.0 0.0 -90.0 xyz
   end
   begin
      id 15
      name LeftHandThumb1
      direction 0.000000 0.000000 1.000000
      length 3.937000
      axis 0.0 0.0 -90.0 xyz
      dof rx rz ry
   end
   begin
      id 16
      name RightShoulder
      direction -1.000000 0.000000 0.000000
      length 7.531907
      axis 0.0 0.0 90.0 xyz
      dof rx ry rz
   end
   begin
      id 17
      name RightArm
      direction -1.000000 0.000000 0.000000
      length 10.229199
      axis 0.0 0.0 90.0 xyz
      dof rx ry rz
   end
   begin
      id 18
      name RightForeArm
      direction -1.000000 0.000000 0.000000
      length 8.673495
      axis 0.0 0.0 90.0 xyz
      dof ry rz rx
   end
   begin
      id 19
      name RightHand
      direction 0.000000 0.000000 0.000000
      length 0.000000
      axis 0.0 0.0 90.0 xyz
      dof rx ry rz
   end
   begin
      id 20
      name RightHand_dum1
      direction 0.000000 0.000000 0.000000
      length 0.000000
      axis 0.0 0.0 90.0 xyz
   end
   begin
      id 21
      name RightHand_dum2
      direction -1.000000 0.000000 0.000000
      length 3.937000
      axis 0.0 0.0 90.0 xyz
   end
   begin
      id 22
      name RightHandThumb1
      direction 0.000000 0.000000 1.000000
      length 3.937000
      axis 0.0 0.0 90.0 xyz
      dof rx rz ry
   end
   begin
      id 23
      name LeftUpLeg
      direction 0.000000 -1.000000 0.000000
      length 16.263388
      axis 0.0 0.0 0.0 xyz
      dof rx ry rz
   end
   begin
      id 24
      name LeftLeg
      direction 0.000000 -1.000000 0.000000
      length 14.328163
      axis 0.0 0.0 0.0 xyz
      dof rx ry rz
   end
   begin
      id 25
      name LeftFoot
      direction 0.000000 -0.258819 0.965926
      length 5.031290
      axis 15.0 0.0 0.0 xyz
      dof rx ry rz
   end
   begin
      id 26
      name LeftToeBase
      direction 0.000000 0.000000 1.000000
      length 2.952750
      axis 0.0 0.0 0.0 xyz
      dof rx ry rz
   end
   begin
      id 27
      name RightUpLeg
      direction 0.000000 -1.000000 0.000000
      length 16.263388
      axis 0.0 0.0 0.0 xyz
      dof rx ry rz
   end
   begin
      id 28
      name RightLeg
      direction 0.000000 -1.000000 0.000000
      length 14.328163
      axis 0.0 0.0 0.0 xyz
      dof rx ry rz
   end
   begin
      id 29
      name RightFoot
      direction 0.000000 -0.258819 0.965926
      length 5.031290
      axis 15.0 0.0 0.0 xyz
      dof rx ry rz
   end
   begin
      id 30
      name RightToeBase
      direction 0.000000 0.000000 1.000000
      length 2.952750
      axis 0.0 0.0 0.0 xyz
      dof rx ry rz
   end
:hierarchy
   begin
      root Spine_dum LeftUpLeg_dum RightUpLeg_dum
      Spine_dum Spine
      LeftUpLeg_dum LeftUpLeg
      RightUpLeg_dum RightUpLeg
      Spine Spine_dum1 Spine_dum2 Spine_dum3
      Spine_dum1 Head
      Spine_dum2 LeftShoulder
      Spine_dum3 RightShoulder
      LeftShoulder LeftArm
      LeftArm LeftForeArm
      LeftForeArm LeftHand
      LeftHand LeftHand_dum1 LeftHand_dum2
      LeftHand_dum1 LeftHandThumb1
      RightShoulder RightArm
      RightArm RightForeArm
      RightForeArm RightHand
      RightHand RightHand_dum1 RightHand_dum2
      RightHand_dum1 RightHandThumb1
      LeftUpLeg LeftLeg
      LeftLeg LeftFoot
      LeftFoot LeftToeBase
      RightUpLeg RightLeg
      RightLeg RightFoot
      RightFoot RightToeBase
   end

# File created by Blade
# Date/Time:  Wed Apr 08 14:47:20 2015
# Frame Rate: 120.000 fps
#------------------------------------------------------
:FULLY-SPECIFIED
:DEGREES
282
root 1.543922 33.455037 4.223223 -32.145075 12.144319 -33.965232
Spine 24.198820 -22.609169 13.907602
Head -0.527649 -8.264672 18.368207
LeftShoulder -13.739953 41.049180 23.133192
LeftArm 80.470265 -24.956397 -80.896716
LeftForeArm 3.150733 0.000000 123.696400
LeftHand 8.505029 -0.000000 5.678765
LeftHandThumb1 -26.253704 0.000000 33.147579
RightShoulder -13.519500 -5.097167 -18.450104
RightArm -3.109708 27.252207 43.806320
RightForeArm 14.197680 -0.000000 118.475346
RightHand 10.123842 -0.000000 -18.252362
RightHandThumb1 -24.326973 -0.000000 -32.862282
LeftUpLeg 9.282382 -2.770865 33.236953
LeftLeg 27.880105 -0.000000 -0.000000
LeftFoot -17.415833 -10.361498 -26.617322
LeftToeBase 5.339016 -0.000000 -0.000000
RightUpLeg -75.758917 -28.975086 -2.189396
RightLeg -12.459099 -0.000000 0.000000
RightFoot 42.396624 -19.382394 -7.984432
RightToeBase 26.471399 -0.000000 -0.000000
283
root 1.613035 33.353180 4.320509 -30.960084 12.953454 -31.962306
Spine 23.398379 -21.881942 12.407116
Head -1.941647 -8.373814 17.797680
LeftShoulder -14.092887 41.214113 22.410348
LeftArm 79.489580 -23.853120 -79.749898
LeftForeArm 2.955555 -0.000000 125.571554
LeftHand 8.567866 -0.000000 5.110707
LeftHandThumb1 -26.253704 0.000000 33.147579
RightShoulder -13.880277 -5.685018 -18.423135
RightArm -3.927372 28.113027 44.335924
RightForeArm 14.625083 -0.000000 119.671962
RightHand 10.082431 0.000000 -18.097671
RightHandThumb1 -24.326973 -0.000000 -32.862282
LeftUpLeg 9.184589 -0.986316 31.232058
LeftLeg 27.629929 -0.000000 -0.000000
LeftFoot -18.102591 -10.061017 -26.135264
LeftToeBase 5.960508 -0.000000 -0.000000
RightUpLeg -80.340209 -29.580790 -0.266913
RightLeg -17.419155 -0.000000 0.000000
RightFoot 38.070158 -21.296404 -8.210306
RightToeBase 26.168093 -0.000000 -0.000000
284
root 1.666029 33.309982 4.445706 -30.356807 13.685434 -30.739438
Spine 22.933695 -21.551339 11.581386
Head -3.316733 -8.632573 17.069080
LeftShoulder -14.370186 41.078840 21.536028
LeftArm 78.265150 -22.709341 -78.396599
LeftForeArm 3.123482 -0.000000 127.296501
LeftHand 8.758842 -0.000000 4.811656
LeftHandThumb1 -26.253704 0.000000 33.147579
RightShoulder -14.215940 -6.085200 -18.507853
RightArm -4.882442 29.026527 44.904096
RightForeArm 15.137546 -0.000000 120.830669
RightHand 9.954491 -0.000000 -17.453879
RightHandThumb1 -24.326973 -0.000000 -32.862282
LeftUpLeg 9.183119 0.372913 30.073788
LeftLeg 27.455429 -0.000000 -0.000000
LeftFoot -18.285129 -9.906518 -25.501153
LeftToeBase 6.150891 -0.000000 -0.000000
RightUpLeg -84.648073 -30.223553 1.834111
RightLeg -19.635713 -0.000000 0.000000
RightFoot 32.170542 -24.821026 -2.370870
RightToeBase 28.288176 -0.000000 -0.000000
285
root 1.783714 33.252516 4.577902 -30.065865 14.982839 -29.197341
Spine 22.799129 -21.717612 10.164914
Head -4.616196 -8.877221 16.055339
LeftShoulder -14.734273 41.012288 20.430000
LeftArm 77.144473 -21.621669 -77.243095
LeftForeArm 3.779179 -0.000000 128.844005
LeftHand 9.036564 -0.000000 4.596181
LeftHandThumb1 -26.253704 0.000000 33.147579
RightShoulder -14.406616 -6.533276 -18.811108
RightArm -5.770369 29.994389 45.727336
RightForeArm 15.569011 0.000000 121.965700
RightHand 10.044901 -0.000000 -17.636574
RightHandThumb1 -24.326973 -0.000000 -32.862282
LeftUpLeg 9.340549 0.784882 28.101565
LeftLeg 27.341144 -0.000000 -0.000000
LeftFoot -18.529173 -9.463878 -24.960480
LeftToeBase 6.249649 -0.000000 -0.000000
RightUpLeg -87.691864 -31.263882 0.174182
RightLeg -18.691299 -0.000000 0.000000
RightFoot 32.747122 -24.592867 -3.921405
RightToeBase 29.084085 -0.000000 -0.000000
